<svg xmlns="http://www.w3.org/2000/svg" viewBox="0 0 1200 720" role="img" aria-labelledby="title desc">
  <title id="title">Restaurant owner website ambience</title>
  <desc id="desc">Stylized restaurant website and owner marketing ambience image for mood only, not a verified business photo.</desc>
  <defs><linearGradient id="bg" x1="0" x2="1" y1="0" y2="1"><stop offset="0" stop-color="#111827"/><stop offset=".5" stop-color="#7c2d12"/><stop offset="1" stop-color="#ff9559"/></linearGradient><radialGradient id="g" cx="56%" cy="38%" r="58%"><stop offset="0" stop-color="#fff7ed" stop-opacity=".55"/><stop offset=".55" stop-color="#f97316" stop-opacity=".22"/><stop offset="1" stop-color="#000" stop-opacity="0"/></radialGradient></defs>
  <rect width="1200" height="720" fill="url(#bg)"/><rect width="1200" height="720" fill="url(#g)"/>
  <rect x="210" y="150" width="780" height="450" rx="42" fill="#f8fafc" opacity=".96"/><rect x="250" y="198" width="700" height="72" rx="24" fill="#ff6b35"/>
  <circle cx="295" cy="234" r="12" fill="#fff7ed"/><circle cx="335" cy="234" r="12" fill="#fff7ed" opacity=".75"/><circle cx="375" cy="234" r="12" fill="#fff7ed" opacity=".55"/>
  <rect x="285" y="315" width="260" height="180" rx="28" fill="#fed7aa"/><circle cx="380" cy="385" r="54" fill="#dc2626"/><circle cx="432" cy="410" r="38" fill="#16a34a"/><circle cx="405" cy="450" r="34" fill="#facc15"/>
  <rect x="600" y="322" width="280" height="24" rx="12" fill="#111827"/><rect x="600" y="370" width="220" height="18" rx="9" fill="#9ca3af"/><rect x="600" y="410" width="250" height="18" rx="9" fill="#9ca3af"/><rect x="600" y="468" width="170" height="48" rx="24" fill="#111827"/>
  <text x="685" y="500" text-anchor="middle" font-family="Arial,sans-serif" font-size="22" font-weight="700" fill="#fff">Call now</text>
  <text x="600" y="664" text-anchor="middle" font-family="Arial,sans-serif" font-size="25" fill="#fff7ed">Restaurant website ambience only · confirm service details</text>
</svg>
