<svg xmlns="http://www.w3.org/2000/svg" viewBox="0 0 1200 720" role="img" aria-labelledby="title desc">
  <title id="title">Food promo ambience image</title>
  <desc id="desc">Stylized food and offer card scene for ambience only, not a verified restaurant photo.</desc>
  <defs>
    <linearGradient id="bg" x1="0" x2="1" y1="0" y2="1">
      <stop offset="0" stop-color="#431407"/>
      <stop offset="0.55" stop-color="#b45309"/>
      <stop offset="1" stop-color="#fbbf24"/>
    </linearGradient>
    <radialGradient id="plate" cx="50%" cy="45%" r="55%">
      <stop offset="0" stop-color="#fff7ed"/>
      <stop offset="0.72" stop-color="#fed7aa"/>
      <stop offset="1" stop-color="#ea580c"/>
    </radialGradient>
    <filter id="blur"><feGaussianBlur stdDeviation="14"/></filter>
  </defs>
  <rect width="1200" height="720" fill="url(#bg)"/>
  <circle cx="210" cy="145" r="68" fill="#fde68a" opacity="0.55" filter="url(#blur)"/>
  <circle cx="930" cy="128" r="82" fill="#fff7ad" opacity="0.5" filter="url(#blur)"/>
  <rect x="160" y="132" width="880" height="460" rx="44" fill="#fff7ed" opacity="0.95"/>
  <rect x="706" y="190" width="250" height="58" rx="29" fill="#ff6b35"/>
  <text x="831" y="229" text-anchor="middle" font-family="Arial, sans-serif" font-size="27" font-weight="700" fill="#fff">Today’s Feature</text>
  <circle cx="420" cy="370" r="142" fill="#fff"/>
  <circle cx="420" cy="370" r="118" fill="url(#plate)"/>
  <path d="M340 338 C385 295 450 293 500 340 C462 360 392 370 340 338Z" fill="#dc2626" opacity="0.95"/>
  <path d="M336 390 C386 420 455 420 508 390 C468 462 376 462 336 390Z" fill="#16a34a" opacity="0.92"/>
  <circle cx="383" cy="365" r="17" fill="#facc15"/>
  <circle cx="448" cy="362" r="15" fill="#f97316"/>
  <circle cx="420" cy="408" r="18" fill="#fef3c7"/>
  <rect x="640" y="300" width="300" height="22" rx="11" fill="#7c2d12" opacity="0.9"/>
  <rect x="640" y="346" width="250" height="18" rx="9" fill="#9ca3af" opacity="0.8"/>
  <rect x="640" y="384" width="280" height="18" rx="9" fill="#9ca3af" opacity="0.8"/>
  <rect x="640" y="442" width="172" height="46" rx="23" fill="#111827"/>
  <text x="726" y="473" text-anchor="middle" font-family="Arial, sans-serif" font-size="22" font-weight="700" fill="#fff">Search food</text>
  <text x="600" y="648" text-anchor="middle" font-family="Arial, sans-serif" font-size="25" fill="#fff7ed" opacity="0.9">Demo ambience only · not a paid placement</text>
</svg>
