<svg xmlns="http://www.w3.org/2000/svg" viewBox="0 0 1200 720" role="img" aria-labelledby="title desc">
  <title id="title">Warm restaurant table ambience</title>
  <desc id="desc">Stylized warm restaurant table scene for ambience only, not a verified restaurant photo.</desc>
  <defs>
    <linearGradient id="bg" x1="0" x2="1" y1="0" y2="1">
      <stop offset="0" stop-color="#2b1208"/>
      <stop offset="0.42" stop-color="#7c2d12"/>
      <stop offset="1" stop-color="#f97316"/>
    </linearGradient>
    <radialGradient id="glow" cx="50%" cy="35%" r="58%">
      <stop offset="0" stop-color="#fff7c2" stop-opacity="0.9"/>
      <stop offset="0.35" stop-color="#fdba74" stop-opacity="0.35"/>
      <stop offset="1" stop-color="#111827" stop-opacity="0"/>
    </radialGradient>
    <filter id="soft" x="-20%" y="-20%" width="140%" height="140%">
      <feGaussianBlur stdDeviation="18"/>
    </filter>
  </defs>
  <rect width="1200" height="720" fill="url(#bg)"/>
  <rect width="1200" height="720" fill="url(#glow)"/>
  <circle cx="175" cy="130" r="46" fill="#fde68a" opacity="0.9" filter="url(#soft)"/>
  <circle cx="1015" cy="150" r="58" fill="#fed7aa" opacity="0.8" filter="url(#soft)"/>
  <circle cx="610" cy="122" r="38" fill="#ffedd5" opacity="0.9" filter="url(#soft)"/>
  <path d="M0 485 C210 430 420 515 610 465 C785 420 970 435 1200 392 L1200 720 L0 720 Z" fill="#1f2937" opacity="0.72"/>
  <ellipse cx="600" cy="520" rx="385" ry="96" fill="#3b2418" opacity="0.95"/>
  <ellipse cx="600" cy="505" rx="340" ry="68" fill="#5a2f1b" opacity="0.9"/>
  <circle cx="420" cy="485" r="88" fill="#f9fafb"/>
  <circle cx="420" cy="485" r="68" fill="#fed7aa"/>
  <circle cx="392" cy="462" r="18" fill="#dc2626"/>
  <circle cx="438" cy="466" r="16" fill="#16a34a"/>
  <circle cx="420" cy="506" r="20" fill="#facc15"/>
  <rect x="565" y="394" width="70" height="145" rx="32" fill="#111827" opacity="0.88"/>
  <ellipse cx="600" cy="392" rx="54" ry="17" fill="#fff7ed" opacity="0.9"/>
  <ellipse cx="600" cy="409" rx="38" ry="10" fill="#92400e" opacity="0.85"/>
  <rect x="720" y="424" width="190" height="120" rx="26" fill="#fff7ed" opacity="0.96"/>
  <rect x="750" y="456" width="130" height="12" rx="6" fill="#fb923c"/>
  <rect x="750" y="485" width="100" height="10" rx="5" fill="#9ca3af"/>
  <rect x="750" y="510" width="118" height="10" rx="5" fill="#9ca3af"/>
  <path d="M272 568 C460 622 760 622 934 570" fill="none" stroke="#fbbf24" stroke-width="5" opacity="0.55"/>
  <text x="600" y="670" text-anchor="middle" font-family="Arial, sans-serif" font-size="26" fill="#fff7ed" opacity="0.85">Ambience image only · confirm restaurant details directly</text>
</svg>
