<svg xmlns="http://www.w3.org/2000/svg" viewBox="0 0 1200 720" role="img" aria-labelledby="title desc">
  <title id="title">Las Vegas cheap eats ambience</title>
  <desc id="desc">Stylized budget food and neon city ambience image for mood only, not a verified restaurant photo.</desc>
  <defs><linearGradient id="bg" x1="0" x2="1" y1="0" y2="1"><stop offset="0" stop-color="#052e16"/><stop offset=".45" stop-color="#166534"/><stop offset="1" stop-color="#bef264"/></linearGradient><filter id="soft"><feGaussianBlur stdDeviation="13"/></filter></defs>
  <rect width="1200" height="720" fill="url(#bg)"/>
  <circle cx="220" cy="140" r="78" fill="#bef264" opacity=".4" filter="url(#soft)"/><circle cx="940" cy="160" r="94" fill="#fef08a" opacity=".46" filter="url(#soft)"/>
  <rect x="145" y="250" width="150" height="270" rx="14" fill="#111827" opacity=".65"/><rect x="332" y="175" width="120" height="345" rx="14" fill="#1f2937" opacity=".72"/><rect x="742" y="210" width="140" height="310" rx="14" fill="#111827" opacity=".67"/><rect x="920" y="280" width="120" height="240" rx="14" fill="#1f2937" opacity=".72"/>
  <rect x="260" y="362" width="680" height="170" rx="42" fill="#fff7ed" opacity=".96"/>
  <rect x="365" y="420" width="250" height="54" rx="27" fill="#facc15"/><path d="M382 420c20-50 190-50 216 0" fill="#92400e"/><circle cx="420" cy="448" r="10" fill="#dc2626"/><circle cx="492" cy="448" r="10" fill="#16a34a"/><circle cx="560" cy="448" r="10" fill="#dc2626"/>
  <rect x="690" y="405" width="150" height="80" rx="20" fill="#22c55e"/><rect x="715" y="430" width="100" height="12" rx="6" fill="#fff7ed"/><rect x="715" y="456" width="82" height="10" rx="5" fill="#fff7ed" opacity=".8"/>
  <text x="600" y="664" text-anchor="middle" font-family="Arial,sans-serif" font-size="25" fill="#fff7ed">Las Vegas cheap eats ambience only · confirm details directly</text>
</svg>
